<?xml version="1.0" encoding="UTF-8" standalone="no"?>
<svg width="20px" height="20px" viewBox="0 0 20 20" version="1.1" xmlns="http://www.w3.org/2000/svg" xmlns:xlink="http://www.w3.org/1999/xlink">
    <!-- Generator: Sketch 39 (31667) - http://www.bohemiancoding.com/sketch -->
    <title>coins</title>
    <desc>Created with Sketch.</desc>
    <defs></defs>
    <g id="Page-1" stroke="none" stroke-width="1" fill="none" fill-rule="evenodd">
        <g id="Live_Orders" transform="translate(-630.000000, -636.000000)">
            <g id="Group-Copy-3" transform="translate(600.000000, 428.000000)">
                <g id="coins" transform="translate(30.000000, 208.000000)">
                    <g id="XMLID_22_">
                        <path d="M17.6281356,9.9020339 L17.6281356,10.3216949 C17.6281356,12.6715254 13.6820339,14.5762712 8.81457627,14.5762712 C6.12779661,14.5762712 3.72338983,13.9952542 2.10677966,13.08 C2.65186441,15.1969492 6.35627119,16.9491525 10.8484746,16.9491525 C15.7159322,16.9491525 19.6620339,14.8922034 19.6620339,12.5423729 C19.6620339,11.5091525 18.8972881,10.5986441 17.6281356,9.9020339" id="XMLID_143_" fill="#FCC62D"></path>
                        <path d="M10.8484746,16.9491525 C5.98101695,16.9491525 2.03491525,14.8922034 2.03491525,12.5423729 L2.03491525,15.4061017 C2.03491525,17.7559322 5.98101695,19.6610169 10.8484746,19.6610169 C15.7159322,19.6610169 19.6620339,17.7559322 19.6620339,15.4061017 L19.6620339,12.5423729 C19.6620339,14.8922034 15.7159322,16.9491525 10.8484746,16.9491525" id="XMLID_142_" fill="#E4AF18"></path>
                        <path d="M3.05186441,17.4064407 C3.25186441,17.5891525 3.47864407,17.7640678 3.72983051,17.9301695 L3.72983051,15.119661 C3.47864407,14.9467797 3.25186441,14.7654237 3.05186441,14.5762712 L3.05186441,17.4064407 L3.05186441,17.4064407 Z" id="XMLID_141_" fill="#CE9912"></path>
                        <path d="M17.9671186,15.119661 L17.9671186,17.9301695 C18.2183051,17.7644068 18.4450847,17.5891525 18.6450847,17.4064407 L18.6450847,14.5762712 C18.4454237,14.7654237 18.2186441,14.9467797 17.9671186,15.119661" id="XMLID_140_" fill="#CE9912"></path>
                        <path d="M4.40779661,18.3254237 C4.6220339,18.4362712 4.84847458,18.5410169 5.08576271,18.640339 L5.08576271,15.8630508 C4.84847458,15.7586441 4.6220339,15.6484746 4.40779661,15.5325424 L4.40779661,18.3254237 L4.40779661,18.3254237 Z" id="XMLID_139_" fill="#CE9912"></path>
                        <path d="M16.6111864,18.64 C16.8484746,18.5410169 17.0749153,18.4359322 17.2891525,18.3250847 L17.2891525,15.5322034 C17.0749153,15.6481356 16.8484746,15.7586441 16.6111864,15.8627119 L16.6111864,18.64 L16.6111864,18.64 Z" id="XMLID_138_" fill="#CE9912"></path>
                        <path d="M5.76372881,18.8966102 C5.98271186,18.9715254 6.20881356,19.0413559 6.44169492,19.1064407 L6.44169492,16.3559322 C6.20881356,16.2867797 5.98271186,16.2125424 5.76372881,16.1335593 L5.76372881,18.8966102 L5.76372881,18.8966102 Z" id="XMLID_137_" fill="#CE9912"></path>
                        <path d="M15.2552542,19.1064407 C15.4881356,19.0413559 15.7142373,18.9715254 15.9332203,18.8966102 L15.9332203,16.1335593 C15.7142373,16.2125424 15.4881356,16.2867797 15.2552542,16.3559322 L15.2552542,19.1064407 L15.2552542,19.1064407 Z" id="XMLID_136_" fill="#CE9912"></path>
                        <path d="M7.45864407,19.3505085 C7.68,19.3952542 7.90644068,19.4352542 8.13661017,19.4708475 L8.13661017,16.7440678 C7.90644068,16.7057627 7.68,16.6630508 7.45864407,16.6155932 L7.45864407,19.3505085 L7.45864407,19.3505085 Z" id="XMLID_135_" fill="#CE9912"></path>
                        <path d="M13.560339,19.4708475 C13.7905085,19.4349153 14.0169492,19.3949153 14.2383051,19.3505085 L14.2383051,16.6152542 C14.0169492,16.6627119 13.7905085,16.7054237 13.560339,16.7440678 L13.560339,19.4708475 L13.560339,19.4708475 Z" id="XMLID_134_" fill="#CE9912"></path>
                        <path d="M9.49254237,19.6267797 C9.71559322,19.6433898 9.9420339,19.6549153 10.1705085,19.6630508 L10.1705085,16.9501695 C9.9420339,16.9413559 9.71559322,16.9291525 9.49254237,16.9111864 L9.49254237,19.6267797 L9.49254237,19.6267797 Z" id="XMLID_133_" fill="#CE9912"></path>
                        <path d="M11.5264407,19.6633898 C11.7549153,19.6549153 11.9813559,19.6437288 12.2044068,19.6271186 L12.2044068,16.9111864 C11.9813559,16.9291525 11.7549153,16.9413559 11.5264407,16.9505085 L11.5264407,19.6633898 L11.5264407,19.6633898 Z" id="XMLID_132_" fill="#CE9912"></path>
                        <path d="M8.81457627,11.8620339 C3.94711864,11.8620339 0.00101694915,9.80508475 0.00101694915,7.45525424 L0.00101694915,10.3189831 C0.00101694915,12.6688136 3.94711864,14.5738983 8.81457627,14.5738983 C13.6820339,14.5738983 17.6281356,12.6688136 17.6281356,10.3189831 L17.6281356,7.45525424 C17.6281356,9.80508475 13.6820339,11.8620339 8.81457627,11.8620339" id="XMLID_131_" fill="#E4AF18"></path>
                        <path d="M1.0179661,12.319322 C1.2179661,12.5020339 1.44474576,12.6769492 1.6959322,12.8430508 L1.6959322,10.0325424 C1.44474576,9.85966102 1.2179661,9.67830508 1.0179661,9.48949153 L1.0179661,12.319322 L1.0179661,12.319322 Z" id="XMLID_130_" fill="#CE9912"></path>
                        <path d="M15.9332203,10.0325424 L15.9332203,12.8430508 C16.1844068,12.6772881 16.4111864,12.5020339 16.6111864,12.319322 L16.6111864,9.48915254 C16.4115254,9.67830508 16.1847458,9.85966102 15.9332203,10.0325424" id="XMLID_129_" fill="#CE9912"></path>
                        <path d="M2.37389831,13.2383051 C2.58813559,13.3491525 2.81457627,13.4538983 3.05186441,13.5532203 L3.05186441,10.7759322 C2.81457627,10.6715254 2.58813559,10.5613559 2.37389831,10.4454237 L2.37389831,13.2383051 L2.37389831,13.2383051 Z" id="XMLID_128_" fill="#CE9912"></path>
                        <path d="M14.5772881,13.5528814 C14.8145763,13.4538983 15.0410169,13.3491525 15.2552542,13.2379661 L15.2552542,10.4450847 C15.0410169,10.5610169 14.8145763,10.6715254 14.5772881,10.7755932 L14.5772881,13.5528814 L14.5772881,13.5528814 Z" id="XMLID_127_" fill="#CE9912"></path>
                        <path d="M3.72983051,13.8094915 C3.94881356,13.8844068 4.17491525,13.9542373 4.40779661,14.019322 L4.40779661,11.2688136 C4.17491525,11.199661 3.94881356,11.1254237 3.72983051,11.0464407 L3.72983051,13.8094915 L3.72983051,13.8094915 Z" id="XMLID_126_" fill="#CE9912"></path>
                        <path d="M13.2213559,14.019322 C13.4542373,13.9542373 13.680339,13.8844068 13.899322,13.8094915 L13.899322,11.0464407 C13.680339,11.1254237 13.4542373,11.199661 13.2213559,11.2688136 L13.2213559,14.019322 L13.2213559,14.019322 Z" id="XMLID_125_" fill="#CE9912"></path>
                        <path d="M5.42474576,14.2633898 C5.64610169,14.3081356 5.87254237,14.3481356 6.10271186,14.3837288 L6.10271186,11.6569492 C5.87254237,11.6186441 5.64610169,11.5759322 5.42474576,11.5284746 L5.42474576,14.2633898 L5.42474576,14.2633898 Z" id="XMLID_124_" fill="#CE9912"></path>
                        <path d="M11.5264407,14.3840678 C11.7566102,14.3481356 11.9830508,14.3081356 12.2044068,14.2637288 L12.2044068,11.5284746 C11.9830508,11.5759322 11.7566102,11.6186441 11.5264407,11.6572881 L11.5264407,14.3840678 L11.5264407,14.3840678 Z" id="XMLID_123_" fill="#CE9912"></path>
                        <path d="M7.45864407,14.54 C7.68169492,14.5566102 7.90813559,14.5681356 8.13661017,14.5762712 L8.13661017,11.8633898 C7.90813559,11.8545763 7.68169492,11.8423729 7.45864407,11.8244068 L7.45864407,14.54 L7.45864407,14.54 Z" id="XMLID_122_" fill="#CE9912"></path>
                        <path d="M9.49254237,14.5762712 C9.72101695,14.5677966 9.94745763,14.5566102 10.1705085,14.54 L10.1705085,11.8240678 C9.94745763,11.8420339 9.72101695,11.8542373 9.49254237,11.8633898 L9.49254237,14.5762712 L9.49254237,14.5762712 Z" id="XMLID_121_" fill="#CE9912"></path>
                        <path d="M17.3966102,11.2888136 C16.4891525,13.1722034 12.9928814,14.5762712 8.81457627,14.5762712 C7.25389831,14.5762712 5.78881356,14.379661 4.51728814,14.0362712 C5.74711864,14.8711864 7.9359322,15.5816949 10.8484746,15.5816949 C15.4864407,15.5816949 18.3061017,13.7813559 18.3061017,12.5423729 C18.3061017,12.1288136 17.9877966,11.6901695 17.3966102,11.2888136" id="XMLID_120_" fill="#FFD949"></path>
                        <path d="M10.5094915,11.1864407 C5.6420339,11.1864407 1.6959322,9.28135593 1.6959322,6.93152542 L1.6959322,5.01559322 C0.631186441,5.68305085 0.00101694915,6.52 0.00101694915,7.45762712 C0.00101694915,9.80745763 3.94711864,11.8644068 8.81457627,11.8644068 C11.1583051,11.8644068 13.2864407,11.3867797 14.8650847,10.6298305 C13.58,10.9833898 12.0942373,11.1864407 10.5094915,11.1864407" id="XMLID_119_" fill="#FFD949"></path>
                        <path d="M10.5094915,8.47220339 C5.6420339,8.47220339 1.6959322,6.41525424 1.6959322,4.06542373 L1.6959322,6.92915254 C1.6959322,9.27898305 5.6420339,11.1840678 10.5094915,11.1840678 C15.3769492,11.1840678 19.3230508,9.27898305 19.3230508,6.92915254 L19.3230508,4.06542373 C19.3230508,6.41525424 15.3769492,8.47220339 10.5094915,8.47220339" id="XMLID_118_" fill="#E4AF18"></path>
                        <path d="M2.71288136,8.92949153 C2.91288136,9.11220339 3.13966102,9.28711864 3.39084746,9.45322034 L3.39084746,6.64271186 C3.13966102,6.46983051 2.91288136,6.28847458 2.71288136,6.09966102 L2.71288136,8.92949153 L2.71288136,8.92949153 Z" id="XMLID_117_" fill="#CE9912"></path>
                        <path d="M17.6281356,6.64271186 L17.6281356,9.45322034 C17.879322,9.28745763 18.1061017,9.11220339 18.3061017,8.92949153 L18.3061017,6.09932203 C18.1064407,6.28847458 17.879661,6.46983051 17.6281356,6.64271186" id="XMLID_116_" fill="#CE9912"></path>
                        <path d="M4.06881356,9.84847458 C4.28305085,9.95932203 4.50949153,10.0640678 4.74677966,10.1633898 L4.74677966,7.38610169 C4.50949153,7.28169492 4.28305085,7.17152542 4.06881356,7.05559322 L4.06881356,9.84847458 L4.06881356,9.84847458 Z" id="XMLID_115_" fill="#CE9912"></path>
                        <path d="M16.2722034,10.1630508 C16.5094915,10.0640678 16.7359322,9.95932203 16.9501695,9.84813559 L16.9501695,7.05525424 C16.7359322,7.17118644 16.5094915,7.28169492 16.2722034,7.38576271 L16.2722034,10.1630508 L16.2722034,10.1630508 Z" id="XMLID_114_" fill="#CE9912"></path>
                        <path d="M5.42474576,10.419661 C5.64372881,10.4945763 5.86983051,10.5644068 6.10271186,10.6294915 L6.10271186,7.87898305 C5.86983051,7.80983051 5.64372881,7.73559322 5.42474576,7.65661017 L5.42474576,10.419661 L5.42474576,10.419661 Z" id="XMLID_113_" fill="#CE9912"></path>
                        <path d="M14.9162712,10.6294915 C15.1491525,10.5644068 15.3752542,10.4945763 15.5942373,10.419661 L15.5942373,7.65661017 C15.3752542,7.73559322 15.1491525,7.80983051 14.9162712,7.87898305 L14.9162712,10.6294915 L14.9162712,10.6294915 Z" id="XMLID_112_" fill="#CE9912"></path>
                        <path d="M7.11966102,10.8735593 C7.34101695,10.9183051 7.56745763,10.9583051 7.79762712,10.9938983 L7.79762712,8.26711864 C7.56745763,8.22881356 7.34101695,8.18610169 7.11966102,8.13864407 L7.11966102,10.8735593 L7.11966102,10.8735593 Z" id="XMLID_111_" fill="#CE9912"></path>
                        <path d="M13.2213559,10.9942373 C13.4515254,10.9583051 13.6779661,10.9183051 13.899322,10.8738983 L13.899322,8.13864407 C13.6779661,8.18610169 13.4515254,8.22881356 13.2213559,8.26745763 L13.2213559,10.9942373 L13.2213559,10.9942373 Z" id="XMLID_110_" fill="#CE9912"></path>
                        <path d="M9.15355932,11.1501695 C9.37661017,11.1667797 9.60305085,11.1783051 9.83152542,11.1864407 L9.83152542,8.47355932 C9.60305085,8.46474576 9.37661017,8.45254237 9.15355932,8.43457627 L9.15355932,11.1501695 L9.15355932,11.1501695 Z" id="XMLID_109_" fill="#CE9912"></path>
                        <path d="M11.1874576,11.1864407 C11.4159322,11.1779661 11.6423729,11.1667797 11.8654237,11.1501695 L11.8654237,8.43423729 C11.6423729,8.45220339 11.4159322,8.46440678 11.1874576,8.47355932 L11.1874576,11.1864407 L11.1874576,11.1864407 Z" id="XMLID_108_" fill="#CE9912"></path>
                        <path d="M19.3230508,4.06779661 C19.3230508,6.41762712 15.3769492,8.47457627 10.5094915,8.47457627 C5.6420339,8.47457627 1.6959322,6.41762712 1.6959322,4.06779661 C1.6959322,1.7179661 5.6420339,0 10.5094915,0 C15.3769492,0 19.3230508,1.7179661 19.3230508,4.06779661" id="XMLID_107_" fill="#FCC62D"></path>
                        <path d="M10.5094915,7.10711864 C5.87152542,7.10711864 3.05186441,5.30711864 3.05186441,4.06779661 C3.05186441,2.82881356 5.87152542,1.01694915 10.5094915,1.01694915 C15.1474576,1.01694915 17.9671186,2.82881356 17.9671186,4.06779661 C17.9671186,5.30711864 15.1474576,7.10711864 10.5094915,7.10711864" id="XMLID_106_" fill="#FFD949"></path>
                        <path d="M12.8081356,4.52847458 C13.0861017,4.46949153 13.2491525,4.2979661 13.1891525,4.10237288 L13.1247458,3.89355932 C13.0776271,3.74 12.8942373,3.61186441 12.6694915,3.54813559 C12.3637288,2.89491525 11.5840678,2.65830508 10.4261017,2.65830508 C10.3711864,2.65830508 10.3176271,2.65966102 10.2647458,2.66169492 C9.86949153,2.6779661 9.47525424,2.64 9.16779661,2.52745763 C9.04237288,2.48169492 8.94033898,2.43389831 8.87288136,2.3840678 C8.84237288,2.36169492 8.76847458,2.3759322 8.76847458,2.40440678 C8.76847458,2.45389831 8.77220339,2.51254237 8.78305085,2.57762712 C8.82508475,2.83084746 8.77491525,2.79288136 8.52474576,3.04542373 C8.37966102,3.19254237 8.2640678,3.3620339 8.18033898,3.54915254 C7.95694915,3.61322034 7.77457627,3.74101695 7.72745763,3.89389831 L7.66305085,4.10271186 C7.60305085,4.29830508 7.76610169,4.46983051 8.0440678,4.52881356 C8.12338983,5.02915254 8.46338983,5.46847458 9.20474576,5.71050847 L9.1640678,6.0620339 C9.15322034,6.1559322 9.07220339,6.24271186 8.95423729,6.28542373 L7.45898305,6.82508475 C8.33220339,7.00813559 9.32745763,7.11864407 10.4261017,7.11864407 C11.5094915,7.11864407 12.4922034,7.01118644 13.3566102,6.83322034 L11.8938983,6.28644068 C11.7783051,6.24305085 11.6989831,6.15694915 11.6884746,6.06474576 L11.6474576,5.71050847 C12.3888136,5.46847458 12.7288136,5.02881356 12.8081356,4.52847458" id="XMLID_105_" fill="#F0C41B"></path>
                    </g>
                </g>
            </g>
        </g>
    </g>
</svg>