<?xml version="1.0" encoding="UTF-8" standalone="no"?>
<svg width="34px" height="38px" viewBox="0 0 34 38" version="1.1" xmlns="http://www.w3.org/2000/svg" xmlns:xlink="http://www.w3.org/1999/xlink">
    <!-- Generator: Sketch 39 (31667) - http://www.bohemiancoding.com/sketch -->
    <title>icon (4)</title>
    <desc>Created with Sketch.</desc>
    <defs></defs>
    <g id="Page-1" stroke="none" stroke-width="1" fill="none" fill-rule="evenodd">
        <g id="Menu_Products" transform="translate(-36.000000, -1072.000000)" fill="#FFFFFF">
            <g id="Group-3" transform="translate(0.000000, 1045.000000)">
                <g id="icon-(4)" transform="translate(36.000000, 27.000000)">
                    <g id="b175_hot_food">
                        <path d="M20.016878,17.4395217 C20.0326341,17.309 20.0392683,17.1751739 20.0392683,17.0413478 C20.0392683,15.352 18.8633659,13.984 17.4121463,13.984 C15.958439,13.984 14.780878,15.352 14.780878,17.0413478 C14.780878,17.1446087 14.7875122,17.2462174 14.7958049,17.3494783 C6.7004878,18.4754348 0.46604878,25.4005217 0.46604878,33.7778696 L33.7760976,33.7778696 C33.7760976,25.5987826 27.8319024,18.8066957 20.016878,17.4395217 L20.016878,17.4395217 Z" id="Shape"></path>
                        <rect id="Rectangle-path" x="0.46604878" y="35.378" width="33.3100488" height="2.03795652"></rect>
                        <path d="M9.22478049,13.3611304 C9.46526829,13.6238261 9.76380488,13.7964783 10.0673171,13.8906522 C10.3708293,13.984 10.6818049,14.0195217 10.9836585,13.984 C10.4205854,13.794 9.90643902,13.471 9.69,13.0323478 C9.46526829,12.606087 9.53741463,12.1046522 9.7057561,11.618913 C9.88073171,11.1282174 10.1527317,10.649087 10.4537561,10.1831739 C10.7556098,9.71726087 11.0922927,9.26043478 11.445561,8.81186957 C11.8137561,8.3343913 12.1637073,7.83047826 12.4647317,7.29021739 C12.7607805,6.74665217 13.0211707,6.16921739 13.1463902,5.51743478 C13.2060976,5.19443478 13.2342927,4.85243478 13.1754146,4.50382609 C13.1215122,4.15852174 12.975561,3.80991304 12.7392195,3.54721739 C12.5020488,3.28617391 12.2035122,3.11186957 11.8991707,3.01769565 C11.5948293,2.92352174 11.2855122,2.89130435 10.9844878,2.92352174 C11.5459024,3.11269565 12.0625366,3.43817391 12.2781463,3.87847826 C12.502878,4.30473913 12.4282439,4.80286957 12.2599024,5.2886087 C12.0849268,5.78095652 11.8162439,6.26008696 11.5143902,6.72434783 C11.2125366,7.19191304 10.8750244,7.64708696 10.5234146,8.09730435 C10.1552195,8.57643478 9.80526829,9.07704348 9.5042439,9.61895652 C9.20736585,10.1608696 8.94614634,10.7416087 8.82341463,11.390913 C8.76204878,11.713913 8.73468293,12.0592174 8.79273171,12.4045217 C8.84912195,12.7514783 8.99258537,13.0976087 9.22478049,13.3611304 L9.22478049,13.3611304 Z" id="Shape"></path>
                        <path d="M15.3621951,10.4516522 C15.6001951,10.7110435 15.899561,10.887 16.2022439,10.9795217 C16.5090732,11.0745217 16.8200488,11.1067391 17.1194146,11.0745217 C16.5571707,10.8845217 16.0413659,10.5582174 15.8274146,10.1228696 C15.6001951,9.69247826 15.674,9.19517391 15.844,8.70778261 C16.0148293,8.21708696 16.2884878,7.73795652 16.5886829,7.27369565 C16.8930244,6.80613043 17.2280488,6.34930435 17.5813171,5.90073913 C17.9511707,5.42326087 18.2986341,4.921 18.6004878,4.37908696 C18.894878,3.83717391 19.1602439,3.25643478 19.2838049,2.60630435 C19.3443415,2.28330435 19.3700488,1.94130435 19.3111707,1.59269565 C19.256439,1.24904348 19.1096585,0.898782609 18.8758049,0.636086957 C18.6394634,0.375043478 18.3392683,0.197434783 18.0357561,0.104913043 C17.7314146,0.0132173913 17.4187805,-0.0206521739 17.1185854,0.0132173913 C17.68,0.203217391 18.1966341,0.527869565 18.4105854,0.966521739 C18.6353171,1.39608696 18.5623415,1.89091304 18.3931707,2.37995652 C18.2190244,2.86734783 17.9495122,3.34978261 17.6476585,3.81404348 C17.3458049,4.2816087 17.0116098,4.73678261 16.6591707,5.187 C16.2893171,5.66447826 15.9401951,6.1683913 15.6383415,6.71030435 C15.3447805,7.24891304 15.0827317,7.82965217 14.9575122,8.48226087 C14.8986341,8.80526087 14.8712683,9.14891304 14.9293171,9.49421739 C14.9840488,9.83704348 15.1283415,10.1889565 15.3621951,10.4516522 L15.3621951,10.4516522 Z" id="Shape"></path>
                        <path d="M21.6638049,13.3611304 C21.9018049,13.6238261 22.1995122,13.7964783 22.5046829,13.8906522 C22.8098537,13.9848261 23.12,14.0195217 23.4201951,13.984 C22.8587805,13.794 22.3438049,13.471 22.1265366,13.0323478 C21.9018049,12.606087 21.9756098,12.1046522 22.1439512,11.618913 C22.3189268,11.1282174 22.5909268,10.649087 22.8902927,10.1831739 C23.1938049,9.71726087 23.5288293,9.26043478 23.8812683,8.81186957 C24.2519512,8.3343913 24.6010732,7.83047826 24.900439,7.29021739 C25.1973171,6.74665217 25.4618537,6.16921739 25.5845854,5.51743478 C25.6459512,5.19443478 25.6724878,4.85243478 25.614439,4.50382609 C25.5572195,4.15852174 25.4120976,3.80991304 25.1799024,3.54721739 C24.9410732,3.28617391 24.6425366,3.11186957 24.3373659,3.01769565 C24.0321951,2.92352174 23.7203902,2.89130435 23.4193659,2.92352174 C23.982439,3.11269565 24.4990732,3.43817391 24.7105366,3.87847826 C24.9385854,4.30473913 24.8622927,4.80286957 24.6947805,5.2886087 C24.5214634,5.78095652 24.251122,6.26008696 23.9492683,6.72434783 C23.6457561,7.19191304 23.3090732,7.64708696 22.9599512,8.09730435 C22.5892683,8.57643478 22.2384878,9.07704348 21.9416098,9.61895652 C21.6422439,10.1608696 21.3810244,10.7416087 21.2566341,11.390913 C21.1969268,11.713913 21.169561,12.0592174 21.2292683,12.4045217 C21.284,12.7514783 21.4266341,13.0976087 21.6638049,13.3611304 L21.6638049,13.3611304 Z" id="Shape"></path>
                    </g>
                </g>
            </g>
        </g>
    </g>
</svg>