<?xml version="1.0" encoding="UTF-8" standalone="no"?>
<svg width="186px" height="94px" viewBox="0 0 186 94" version="1.1" xmlns="http://www.w3.org/2000/svg" xmlns:xlink="http://www.w3.org/1999/xlink">
    <!-- Generator: Sketch 39 (31667) - http://www.bohemiancoding.com/sketch -->
    <title>Group</title>
    <desc>Created with Sketch.</desc>
    <defs></defs>
    <g id="Page-1" stroke="none" stroke-width="1" fill="none" fill-rule="evenodd">
        <g id="Bill_Requested" transform="translate(-267.000000, -663.000000)" fill="#FFFFFF">
            <g id="1491576" transform="translate(267.000000, 663.000000)">
                <g id="Group">
                    <g id="Shape">
                        <g>
                            <path d="M19.694008,24.5021673 C19.6433146,24.4238964 19.6112585,24.3227809 19.5970942,24.1988207 C19.5411824,23.7026056 19.9008818,23.3902709 20.6776834,23.2599442 C23.3014389,23.2539522 26.8786774,22.846494 31.4101443,22.0371952 C32.2234749,21.8611793 32.6644329,21.1623586 32.7356273,19.9399841 C32.5518637,19.4179283 32.3841283,19.0385578 32.2324208,18.804494 C31.8514749,18.0116733 31.2081162,17.4776335 30.3027174,17.204247 C30.402986,16.9840398 29.7741643,16.9507092 28.4173707,17.1053785 C24.593002,17.5409243 17.4072144,19.0085976 6.86112625,21.5065259 C5.00597194,21.6765498 3.42515832,22.0656574 2.11943086,22.6742231 C0.813703407,23.2835378 0.207619238,24.0010837 0.300805611,24.8272351 C0.319815631,24.9927649 0.381318637,25.1736494 0.487178357,25.371012 C0.646340681,27.1525179 2.74042485,27.8131394 6.7705491,27.3543745 C8.78486573,27.1248048 10.8040281,26.5604303 12.8265451,25.660502 L13.7196433,26.3746773 C15.2784649,32.4326215 16.2856232,37.4854024 16.7418637,41.5341434 C16.8726974,42.6913546 16.8972986,43.4620797 16.8156673,43.8478167 C17.3703126,48.7646534 18.1333226,53.5006056 19.1061884,58.0552988 C20.0779359,62.610741 20.9147495,65.2240159 21.6151383,65.897745 C22.1891663,67.297259 23.4639559,67.8837291 25.4376433,67.6586534 C25.9307856,67.6024781 26.3937355,67.4665339 26.827984,67.2489482 C27.257014,67.3680398 27.6040401,67.1193705 27.8683166,66.5025657 C28.1318477,65.8876335 28.1985691,65.1899363 28.0692265,64.4083506 C25.568477,49.253753 22.7762405,35.9510677 19.694008,24.5021673 L19.694008,24.5021673 Z"></path>
                            <path d="M139.65618,40.7154821 C137.254208,39.7331633 134.854846,38.7725657 132.458465,37.8318167 C129.842537,37.1678247 128.474561,36.2986056 128.353046,35.2237849 C128.274024,34.5215936 129.132084,33.2628924 130.925735,31.4469323 C132.71976,29.6320956 133.561046,28.2284622 133.449595,27.2364064 C133.411948,26.9064701 133.291924,26.5855219 133.091014,26.2728127 C132.152441,25.7110598 131.067006,25.4994661 129.833218,25.6399044 C128.886818,25.747761 128.170401,26.0391235 127.68285,26.5121195 C126.240325,27.3884542 124.844766,28.58349 123.495427,30.0964781 C122.145715,31.6102151 121.360341,32.8610518 121.138557,33.848239 C120.924974,34.1661912 120.838497,34.5103586 120.880617,34.8818645 C121.039407,36.286996 122.507651,37.9509084 125.285723,39.8724781 C128.063796,41.7955458 131.33501,43.3789402 135.099367,44.6230359 C135.423655,44.9218884 135.605182,45.2353466 135.64283,45.5656574 C135.680104,45.8970916 135.556353,46.0996972 135.274184,46.1730996 C131.984333,48.7665259 128.591976,50.2615378 125.097487,50.659259 C124.480593,50.7296653 123.553202,50.7307888 122.317551,50.6618805 C121.404697,50.6113227 120.662561,50.5989641 120.087415,50.6236813 C120.387848,49.9671793 120.514581,49.3383904 120.447114,48.7403108 C120.372565,48.0800637 120.097106,47.6718566 119.621483,47.5168127 C118.157711,47.097745 115.73002,46.2446295 112.3358,44.9567171 C109.247976,43.8021275 106.78301,42.9954502 104.940529,42.5351873 C108.191988,37.3947729 110.813134,33.4980797 112.804713,30.8436096 C113.068244,30.2283028 113.167768,29.6313466 113.102537,29.0523665 C113.000405,28.1441992 112.48788,27.4805817 111.56608,27.0618884 C110.643908,26.6439442 109.65315,26.5372112 108.593435,26.7416892 C106.185126,29.0246534 103.342196,32.988757 100.064645,38.6343745 C99.590513,35.1736016 98.2590661,28.1692908 96.0691864,17.6233147 C95.5372786,16.9724303 94.9882244,16.3451394 94.4197876,15.7399442 C93.8524689,15.1358725 93.3000601,14.8632351 92.7659158,14.9239044 C92.5195311,14.951992 92.2403447,15.0680876 91.9305932,15.2699442 C90.6852505,16.4166693 90.1138317,17.4446773 90.2163367,18.3524701 C91.6651984,24.7085179 92.9466974,31.5390598 94.0645611,38.8358566 C93.1915912,36.3446693 92.4751743,34.5358247 91.9160561,33.4119442 C90.5257154,31.0593227 88.1971743,30.1743745 84.9315511,30.7552271 C82.8326212,32.4592112 81.3886052,34.6107251 80.5998758,37.2112669 C80.1421443,37.221753 79.4585291,36.9753307 78.5482846,36.4723745 C77.6380401,35.9694183 76.8601202,35.816996 76.2163888,36.0158566 C75.2252585,36.087012 74.5099599,36.2102231 74.0716112,36.38549 C73.4823006,36.6386534 73.160994,37.0124064 73.1021002,37.5041275 C72.9078998,36.6435219 72.6991623,35.7870359 72.4721603,34.9365418 C71.3255952,33.2681355 69.3127695,32.5970279 66.4351743,32.9250916 C65.160012,33.0700239 63.9959279,33.4535139 62.9418036,34.0759363 C61.0702485,35.2099283 59.6504609,37.2970279 58.6813226,40.3361116 C58.4390381,41.0970996 58.238501,41.8659522 58.0800842,42.6437928 C56.8645611,38.4879442 55.7884449,36.4603904 54.8513627,36.566749 C54.7686132,36.5761116 54.7093467,36.6045737 54.6735631,36.6498884 C53.382,35.5417371 51.4616152,35.1327809 48.9124088,35.4230199 C45.1286693,35.8536972 41.9450501,37.3464622 39.3596874,39.9009402 C38.2131222,38.2325339 37.4277475,35.5185179 37.0039359,31.7588924 C36.8224088,30.1474104 36.1831503,28.3584143 35.0861603,26.3904064 C33.8195711,24.0243028 32.5078798,22.9180239 31.1507134,23.0726932 C30.2874349,23.1708127 29.4606854,23.7891155 28.6730741,24.9242311 L34.4823126,50.9386375 C35.7101363,56.2809084 36.621499,60.2981912 37.2171463,62.9923586 C37.5861643,64.7922151 38.8404529,65.5693068 40.9788938,65.325506 C41.6777916,65.2457371 42.3841443,65.0401355 43.0957154,64.7079522 C43.4781523,64.0368446 43.5575471,62.7096096 43.3338998,60.7266215 C43.0591864,58.288988 42.3602886,55.4184303 41.2379519,52.1153227 C40.9986493,51.4738008 40.8488056,50.8835857 40.7884208,50.3465498 C40.5688737,48.4043825 41.107491,46.722494 42.4053908,45.2975139 C43.7021723,43.8736574 45.3377796,43.049004 47.3114669,42.8239283 C47.8866132,42.7583904 48.466978,42.7347968 49.0521884,42.7516494 C49.4133788,42.6269402 49.9005571,43.0733466 50.5155872,44.0916175 C52.43299,47.4299283 54.0492144,52.8946614 55.3642605,60.4858167 C55.2740561,60.7895378 55.2472184,61.106741 55.2841202,61.4370518 C55.4988216,63.3372749 57.0240962,64.1256016 59.8618076,63.8020319 C60.8070902,63.6945498 61.5756914,63.1264303 62.167984,62.0958008 C62.0155311,61.0183586 61.8444409,59.9165737 61.6550862,58.7911952 C61.8500321,58.9076653 62.0542966,59.0218884 62.2712345,59.1338645 C64.1241523,60.0528924 65.8309539,60.4229004 67.3938758,60.2453865 C68.5862886,60.1094422 69.6542044,59.7057291 70.599487,59.0331235 C71.5447695,58.3605179 72.0695952,57.5785578 72.1776914,56.687992 C73.1725491,58.1227092 74.3489339,59.317745 75.7057275,60.2719761 C77.0636393,61.2265817 78.1520561,61.655761 78.9750782,61.56251 C79.4685932,61.5059602 79.9427255,61.191004 80.3989659,60.6153944 C80.4146212,60.5955458 80.4276673,60.5760717 80.4429499,60.5562231 C81.279018,61.0176096 82.0848938,61.2078566 82.8602044,61.1198486 C83.723483,61.0213546 84.5110942,60.6180159 85.2226653,59.9098327 C85.0407655,56.0809243 84.839483,52.2748606 84.6214269,48.4916414 C84.5558236,43.8541833 85.3385892,40.2716972 86.9693507,37.7419363 C88.7346733,40.4701833 89.9371503,43.5549562 90.5752906,46.997753 C91.3420281,49.0028367 92.1303848,51.0052988 92.939988,53.0051394 C93.9862846,55.271251 95.6524569,56.3786534 97.9377595,56.3273466 C97.9940441,56.2988845 98.0469739,56.2663028 98.0995311,56.2333466 C99.2103126,58.2062231 100.401607,59.122255 101.672669,58.9773227 C102.001431,58.9398725 102.320501,58.8204064 102.631371,58.6166773 C103.015299,58.6994422 103.294112,58.2178327 103.467812,57.1722231 C103.640766,56.1284861 103.635174,54.7791554 103.448802,53.1264781 C103.234473,51.2266295 102.806188,49.2870837 102.167303,47.3085896 C104.348609,47.8137928 106.698397,48.5294661 109.219275,49.4559841 C111.258565,50.1866375 113.280337,50.9393865 115.284216,51.7149801 C115.924966,52.0149562 116.589198,52.1580159 117.276914,52.1505259 C117.295551,52.2415299 117.321271,52.3314104 117.3619,52.4197928 C117.303379,52.636255 117.284741,52.8478486 117.308224,53.0534502 C117.439058,54.2106614 118.482745,55.0753865 120.443014,55.6468765 C122.402537,56.218741 124.718405,56.3524382 127.391735,56.0475936 C128.296016,55.9449801 129.196196,55.8011713 130.091531,55.6150438 C131.150874,55.0338167 132.840902,54.328255 135.163106,53.4994821 C137.484938,52.6695857 139.173475,51.9445498 140.227599,51.3221275 C141.99404,50.3675219 143.318778,49.1919602 144.202557,47.7935697 C144.265178,47.2434263 144.271515,46.7404701 144.220076,46.2854502 C143.959527,43.9699044 142.437607,42.1146215 139.65618,40.7154821 L139.65618,40.7154821 Z M67.3297635,55.7948048 C64.9859399,56.0614502 63.8501844,55.2285578 63.9236152,53.2953785 C63.4867575,52.0063426 63.1848337,50.6180637 63.0167255,49.1305418 C62.7226293,46.527753 62.8236433,44.0994821 63.319022,41.8464781 C63.8144008,39.5934741 64.6027575,38.0913466 65.6844649,37.3400956 L66.8567495,37.2067729 C67.4322685,37.1412351 68.0562445,38.3362709 68.7294228,40.7911315 C69.4018557,43.246741 69.9386092,46.250247 70.3396834,49.8027729 C70.5167375,51.3730598 70.6524168,52.9478406 70.7474669,54.526741 C69.5796553,55.2465339 68.4401723,55.6682231 67.3297635,55.7948048 L67.3297635,55.7948048 Z M77.024501,53.4036096 C75.7758036,51.0150359 74.9456994,48.7350677 74.5341884,46.5637052 C74.2807214,43.806247 73.8688377,41.0978486 73.3056192,38.4362629 C74.1211864,40.2567171 74.9073066,42.6048446 75.6621162,45.493753 C77.002509,50.3626534 77.7077435,52.9186295 77.7770741,53.1616813 C77.8437956,53.8927092 77.9127535,54.5379761 77.9839479,55.0971076 C77.6678597,54.5870359 77.3484168,54.0245339 77.024501,53.4036096 L77.024501,53.4036096 Z"></path>
                            <path d="M158.688938,31.6409243 C157.52709,31.9453944 156.361142,32.2303904 155.189603,32.4944143 C154.486232,33.4104462 154.291659,34.4702869 154.605511,35.6776813 C154.762437,36.2806295 155.137792,37.1494741 155.731948,38.2827171 C156.22099,39.014494 156.896778,39.3092271 157.758938,39.1695378 C158.278918,39.0332191 158.799643,38.8961514 159.319996,38.7598327 C159.960373,38.5916813 160.47178,38.5860637 160.855707,38.7437291 C162.341098,37.881251 162.603138,36.007243 161.639964,33.1232032 C161.035743,31.9495139 160.052814,31.4551713 158.688938,31.6409243 L158.688938,31.6409243 Z"></path>
                            <path d="M156.057355,24.7253705 C156.697359,24.5572191 157.209138,24.5519761 157.593066,24.7092669 C159.079202,23.8471633 159.340497,21.9731554 158.377323,19.088741 C157.772729,17.9161753 156.788681,17.4214582 155.425924,17.6068367 C154.264076,17.9116813 153.098128,18.1970518 151.926216,18.4610757 C151.223218,19.3767331 151.028645,20.4369482 151.342497,21.6435936 C151.499423,22.2472908 151.874778,23.115761 152.468561,24.2493785 C152.957603,24.9811554 153.633764,25.2758884 154.495551,25.1354502 C155.015904,24.998757 155.536629,24.8620637 156.057355,24.7253705 L156.057355,24.7253705 Z"></path>
                            <path d="M178.045984,18.5030199 C176.770076,13.5955458 175.006244,9.03036653 172.754116,4.80785657 C170.258212,1.29502789 168.069078,-0.215338645 166.187832,0.27825498 C165.466569,0.467378486 164.824329,0.957976096 164.260365,1.75079681 C164.309194,2.59829482 164.734124,3.41021514 165.535527,4.18805578 C166.813671,5.48645418 167.458148,6.15494024 167.468958,6.19463745 C169.884349,10.717498 171.77305,15.5942629 173.13208,20.8234343 C175.244429,28.9501275 175.727507,36.3221992 174.582433,42.9396494 C174.787443,43.4014104 174.830681,44.1421753 174.710657,45.1615697 C174.591752,46.1824622 174.583924,46.8936414 174.68792,47.2947331 C174.886966,48.0598406 175.483731,48.5474422 176.48008,48.7586614 C176.942285,48.8953546 177.374669,48.9107092 177.775371,48.8054741 C178.816449,48.5324622 179.590641,47.7276574 180.099066,46.3914343 C180.978373,36.4484064 180.294385,27.1525179 178.045984,18.5030199 L178.045984,18.5030199 Z"></path>
                        </g>
                        <path d="M34.6813587,93.4202709 C34.6813587,93.4202709 35.1838196,93.0551315 36.1417756,92.4113625 C37.1019679,91.7687171 38.5258557,90.8534343 40.3668457,89.7336733 C42.2085812,88.6157849 44.4812104,87.320008 47.1247214,85.8987729 C49.7768056,84.4962629 52.7934349,82.9555618 56.1369619,81.3815299 C59.4849619,79.8213546 63.136004,78.1701753 67.0636232,76.5822869 C69.0145731,75.7542629 71.0553547,75.0000159 73.1308016,74.1959602 C74.1707615,73.8012351 75.2319679,73.4308526 76.2983928,73.040996 C77.3674269,72.6578805 78.4416794,72.2537928 79.5394148,71.8931474 C81.7289218,71.152008 83.9523487,70.3827809 86.2275872,69.6854582 C87.3640882,69.3311793 88.5024529,68.9555538 89.6575912,68.619251 C90.8145932,68.2866932 91.9768136,67.9526375 93.1442525,67.6167092 C93.7275992,67.4489323 94.3131824,67.2807809 94.8987655,67.1118805 C95.4880762,66.9553386 96.0777595,66.7984223 96.6689339,66.641506 C97.8516553,66.3287968 99.0377315,66.0153386 100.226417,65.7011315 C102.607515,65.0869482 105.013214,64.5368048 107.412577,63.9499602 C109.824613,63.4192908 112.236277,62.8886215 114.639367,62.3601992 C115.844826,62.1149004 117.048421,61.8696016 118.248289,61.6254263 C119.449647,61.387992 120.64206,61.1138566 121.84081,60.909004 C123.038068,60.6917928 124.230481,60.4757052 125.41693,60.260741 C126.604497,60.0502709 127.784236,59.8210757 128.965094,59.6566693 C131.323082,59.2978964 133.659078,58.9851873 135.9578,58.6874582 C138.26323,58.4507729 140.53176,58.2335618 142.754068,58.0508048 C144.97824,57.8875219 147.159547,57.8028845 149.280096,57.7025179 C151.399154,57.5751873 153.467146,57.5901673 155.463571,57.5534661 C156.461784,57.5474741 157.443595,57.5422311 158.40677,57.5366135 C158.888357,57.536988 159.365098,57.5246295 159.837739,57.53549 C160.310381,57.5478486 160.777804,57.5602072 161.241126,57.5729402 C164.945098,57.6703108 168.3341,57.7695538 171.334329,58.0253386 C174.334557,58.2444223 176.944148,58.4556414 179.088553,58.741761 C180.161315,58.8623506 181.117034,58.9979203 181.948629,59.1072749 C182.779852,59.217004 183.48695,59.3113785 184.059114,59.399761 C185.203816,59.5649163 185.812882,59.6667809 185.812882,59.6667809 L185.792381,60.2659841 C185.792381,60.2659841 185.178842,60.3315219 184.027804,60.4547331 C183.452657,60.5172749 182.744441,60.5801912 181.9121,60.6524701 C181.080132,60.7243745 180.123667,60.817251 179.054633,60.8902789 C177.985226,60.9700478 176.802505,61.0479442 175.515788,61.1831394 C174.229443,61.2977371 172.839102,61.4213227 171.355575,61.5366693 C168.38703,61.7366534 165.047603,62.0950518 161.408862,62.3815458 C159.588745,62.515992 157.69818,62.7317052 155.741267,62.9178327 C153.78398,63.0987171 151.760717,63.2683665 149.687134,63.5065498 C147.612806,63.7233865 145.482192,63.9462151 143.303868,64.1739124 C141.130389,64.4338167 138.907335,64.669004 136.645142,64.8925817 C134.384814,65.1307649 132.092056,65.419506 129.760533,65.6382151 C127.434974,65.9074821 125.080713,66.1801195 122.708188,66.455004 C120.336036,66.7441195 117.954565,67.1058884 115.556693,67.4373227 C114.358317,67.6054741 113.167022,67.8253068 111.970509,68.0275378 C110.774369,68.2331394 109.57711,68.4391155 108.379852,68.6443426 C105.999126,69.1237052 103.609082,69.56749 101.242148,70.0745657 C100.060172,70.3352191 98.8804329,70.5958725 97.7044208,70.8550279 C97.1162285,70.9857291 96.5287816,71.1156813 95.9424529,71.246008 C95.3591062,71.3883187 94.776505,71.5298805 94.195022,71.6714422 C93.0324289,71.9545657 91.8739359,72.2365657 90.7217796,72.5170677 C89.5737234,72.8155458 88.4312585,73.1129004 87.2958758,73.408008 C85.019519,73.9813705 82.7931102,74.6281355 80.5972665,75.2501833 C79.4961764,75.5516574 78.4189419,75.8958247 77.3458076,76.2201434 C76.2752826,76.5515777 75.2092305,76.8646614 74.1640521,77.2017131 C72.0796593,77.8945418 70.0254589,78.5349402 68.0521443,79.2322629 C64.0838958,80.5718566 60.3847695,81.9904701 56.9838397,83.3390518 C53.5881283,84.7011155 50.5155872,86.0496972 47.8083367,87.2840558 C45.1137595,88.5431315 42.7837275,89.6857371 40.8812345,90.6601912 C38.9839599,91.644008 37.511988,92.4536813 36.5197395,93.0240478 C35.5278637,93.5970359 35.0145932,93.9191076 35.0145932,93.9191076 L34.6813587,93.4202709 L34.6813587,93.4202709 Z"></path>
                    </g>
                </g>
            </g>
        </g>
    </g>
</svg>