<?xml version="1.0" encoding="UTF-8" standalone="no"?>
<svg width="24px" height="38px" viewBox="0 0 24 38" version="1.1" xmlns="http://www.w3.org/2000/svg" xmlns:xlink="http://www.w3.org/1999/xlink">
    <!-- Generator: Sketch 39 (31667) - http://www.bohemiancoding.com/sketch -->
    <title>bank-terminal</title>
    <desc>Created with Sketch.</desc>
    <defs></defs>
    <g id="Page-1" stroke="none" stroke-width="1" fill="none" fill-rule="evenodd">
        <g id="Bill_Requested" transform="translate(-66.000000, -518.000000)">
            <g id="Group-2" transform="translate(50.000000, 507.000000)">
                <g id="bank-terminal" transform="translate(16.000000, 11.000000)">
                    <g id="Group">
                        <path d="M21,0 L3,0 C1.345875,0 0,1.33185547 0,2.96875 L0,15.7349688 C0,15.9483477 0.008775,16.1623203 0.026925,16.3756992 L1.527525,34.188793 C1.70685,36.3259961 3.545475,38 5.7123,38 L18.79455,38 C21.022875,38 22.865025,36.2756016 22.9875,34.0744961 L23.9877,16.2631836 C23.995875,16.1199414 24,15.9761797 24,15.8335313 L24,2.96875 C24,1.33185547 22.654125,0 21,0 L21,0 Z" id="Shape" fill="#8A8895"></path>
                        <path d="M21,0 L19.8,0 L19.8,37.8749414 C21.552825,37.447293 22.884075,35.933082 22.9875,34.0744961 L23.9877,16.2631836 C23.995875,16.1199414 24,15.9761797 24,15.8335312 L24,2.96875 C24,1.33185547 22.654125,0 21,0 L21,0 Z" id="Shape" fill="#5C546A"></path>
                        <path d="M4.2,0 L3,0 C1.345875,0 0,1.33185547 0,2.96875 L0,15.7349687 C0,15.9483477 0.008775,16.1623203 0.026925,16.3756992 L1.527525,34.188793 C1.6629,35.8028281 2.745225,37.1513828 4.2,37.7155937 L4.2,0 L4.2,0 Z" id="Shape" fill="#5C546A"></path>
                        <path d="M18,36.21875 L6,36.21875 C5.66835,36.21875 5.4,35.9531953 5.4,35.625 C5.4,35.2968047 5.66835,35.03125 6,35.03125 L18,35.03125 C18.33165,35.03125 18.6,35.2968047 18.6,35.625 C18.6,35.9531953 18.33165,36.21875 18,36.21875 L18,36.21875 Z" id="Shape" fill="#5C546A"></path>
                        <path d="M19.2,4.15625 L4.8,4.15625 C3.805875,4.15625 3,4.95373047 3,5.9375 L3,16.625 C3,17.2808711 3.537225,17.8125 4.2,17.8125 L19.8,17.8125 C20.462775,17.8125 21,17.2808711 21,16.625 L21,5.9375 C21,4.95373047 20.194125,4.15625 19.2,4.15625 L19.2,4.15625 Z" id="Shape" fill="#D7DBE0"></path>
                        <path d="M19.2,5.34375 L4.8,5.34375 C4.46865,5.34375 4.2,5.60960156 4.2,5.9375 L4.2,11.875 C4.2,12.2028984 4.46865,12.46875 4.8,12.46875 L19.2,12.46875 C19.53135,12.46875 19.8,12.2028984 19.8,11.875 L19.8,5.9375 C19.8,5.60960156 19.53135,5.34375 19.2,5.34375 L19.2,5.34375 Z" id="Shape" fill="#FFFFFF"></path>
                        <path d="M10.8,10.09375 C10.46835,10.09375 10.2,9.82819531 10.2,9.5 L10.2,8.3125 C10.2,7.98430469 10.46835,7.71875 10.8,7.71875 C11.13165,7.71875 11.4,7.98430469 11.4,8.3125 L11.4,9.5 C11.4,9.82819531 11.13165,10.09375 10.8,10.09375 L10.8,10.09375 Z" id="Shape" fill="#5C546A"></path>
                        <path d="M8.4,10.09375 C8.06835,10.09375 7.8,9.82819531 7.8,9.5 L7.8,8.3125 C7.8,7.98430469 8.06835,7.71875 8.4,7.71875 C8.73165,7.71875 9,7.98430469 9,8.3125 L9,9.5 C9,9.82819531 8.73165,10.09375 8.4,10.09375 L8.4,10.09375 Z" id="Shape" fill="#5C546A"></path>
                        <path d="M13.2,10.09375 C12.86835,10.09375 12.6,9.82819531 12.6,9.5 L12.6,8.3125 C12.6,7.98430469 12.86835,7.71875 13.2,7.71875 C13.53165,7.71875 13.8,7.98430469 13.8,8.3125 L13.8,9.5 C13.8,9.82819531 13.53165,10.09375 13.2,10.09375 L13.2,10.09375 Z" id="Shape" fill="#5C546A"></path>
                        <path d="M15.6,10.09375 C15.26835,10.09375 15,9.82819531 15,9.5 L15,8.3125 C15,7.98430469 15.26835,7.71875 15.6,7.71875 C15.93165,7.71875 16.2,7.98430469 16.2,8.3125 L16.2,9.5 C16.2,9.82819531 15.93165,10.09375 15.6,10.09375 L15.6,10.09375 Z" id="Shape" fill="#5C546A"></path>
                        <path d="M8.4,22.5625 L6,22.5625 C5.66865,22.5625 5.4,22.2966484 5.4,21.96875 L5.4,20.78125 C5.4,20.4533516 5.66865,20.1875 6,20.1875 L8.4,20.1875 C8.73135,20.1875 9,20.4533516 9,20.78125 L9,21.96875 C9,22.2966484 8.73135,22.5625 8.4,22.5625 L8.4,22.5625 Z" id="Shape" fill="#5C546A"></path>
                        <path d="M13.2,22.5625 L10.8,22.5625 C10.46865,22.5625 10.2,22.2966484 10.2,21.96875 L10.2,20.78125 C10.2,20.4533516 10.46865,20.1875 10.8,20.1875 L13.2,20.1875 C13.53135,20.1875 13.8,20.4533516 13.8,20.78125 L13.8,21.96875 C13.8,22.2966484 13.53135,22.5625 13.2,22.5625 L13.2,22.5625 Z" id="Shape" fill="#5C546A"></path>
                        <path d="M18,22.5625 L15.6,22.5625 C15.26865,22.5625 15,22.2966484 15,21.96875 L15,20.78125 C15,20.4533516 15.26865,20.1875 15.6,20.1875 L18,20.1875 C18.33135,20.1875 18.6,20.4533516 18.6,20.78125 L18.6,21.96875 C18.6,22.2966484 18.33135,22.5625 18,22.5625 L18,22.5625 Z" id="Shape" fill="#5C546A"></path>
                        <path d="M8.4,26.125 L6,26.125 C5.66865,26.125 5.4,25.8591484 5.4,25.53125 L5.4,24.34375 C5.4,24.0158516 5.66865,23.75 6,23.75 L8.4,23.75 C8.73135,23.75 9,24.0158516 9,24.34375 L9,25.53125 C9,25.8591484 8.73135,26.125 8.4,26.125 L8.4,26.125 Z" id="Shape" fill="#5C546A"></path>
                        <path d="M13.2,26.125 L10.8,26.125 C10.46865,26.125 10.2,25.8591484 10.2,25.53125 L10.2,24.34375 C10.2,24.0158516 10.46865,23.75 10.8,23.75 L13.2,23.75 C13.53135,23.75 13.8,24.0158516 13.8,24.34375 L13.8,25.53125 C13.8,25.8591484 13.53135,26.125 13.2,26.125 L13.2,26.125 Z" id="Shape" fill="#5C546A"></path>
                        <path d="M18,26.125 L15.6,26.125 C15.26865,26.125 15,25.8591484 15,25.53125 L15,24.34375 C15,24.0158516 15.26865,23.75 15.6,23.75 L18,23.75 C18.33135,23.75 18.6,24.0158516 18.6,24.34375 L18.6,25.53125 C18.6,25.8591484 18.33135,26.125 18,26.125 L18,26.125 Z" id="Shape" fill="#5C546A"></path>
                        <path d="M8.4,29.6875 L6,29.6875 C5.66865,29.6875 5.4,29.4216484 5.4,29.09375 L5.4,27.90625 C5.4,27.5783516 5.66865,27.3125 6,27.3125 L8.4,27.3125 C8.73135,27.3125 9,27.5783516 9,27.90625 L9,29.09375 C9,29.4216484 8.73135,29.6875 8.4,29.6875 L8.4,29.6875 Z" id="Shape" fill="#5C546A"></path>
                        <path d="M13.2,29.6875 L10.8,29.6875 C10.46865,29.6875 10.2,29.4216484 10.2,29.09375 L10.2,27.90625 C10.2,27.5783516 10.46865,27.3125 10.8,27.3125 L13.2,27.3125 C13.53135,27.3125 13.8,27.5783516 13.8,27.90625 L13.8,29.09375 C13.8,29.4216484 13.53135,29.6875 13.2,29.6875 L13.2,29.6875 Z" id="Shape" fill="#5C546A"></path>
                        <path d="M18,29.6875 L15.6,29.6875 C15.26865,29.6875 15,29.4216484 15,29.09375 L15,27.90625 C15,27.5783516 15.26865,27.3125 15.6,27.3125 L18,27.3125 C18.33135,27.3125 18.6,27.5783516 18.6,27.90625 L18.6,29.09375 C18.6,29.4216484 18.33135,29.6875 18,29.6875 L18,29.6875 Z" id="Shape" fill="#5C546A"></path>
                        <path d="M8.4,33.25 L6,33.25 C5.66865,33.25 5.4,32.9841484 5.4,32.65625 L5.4,31.46875 C5.4,31.1408516 5.66865,30.875 6,30.875 L8.4,30.875 C8.73135,30.875 9,31.1408516 9,31.46875 L9,32.65625 C9,32.9841484 8.73135,33.25 8.4,33.25 L8.4,33.25 Z" id="Shape" fill="#FF4F19"></path>
                        <path d="M13.2,33.25 L10.8,33.25 C10.46865,33.25 10.2,32.9841484 10.2,32.65625 L10.2,31.46875 C10.2,31.1408516 10.46865,30.875 10.8,30.875 L13.2,30.875 C13.53135,30.875 13.8,31.1408516 13.8,31.46875 L13.8,32.65625 C13.8,32.9841484 13.53135,33.25 13.2,33.25 L13.2,33.25 Z" id="Shape" fill="#FFD100"></path>
                        <path d="M18,33.25 L15.6,33.25 C15.26865,33.25 15,32.9841484 15,32.65625 L15,31.46875 C15,31.1408516 15.26865,30.875 15.6,30.875 L18,30.875 C18.33135,30.875 18.6,31.1408516 18.6,31.46875 L18.6,32.65625 C18.6,32.9841484 18.33135,33.25 18,33.25 L18,33.25 Z" id="Shape" fill="#73D14F"></path>
                        <path d="M14.4,13.65625 L9.6,13.65625 C9.26865,13.65625 9,13.9221016 9,14.25 L9,16.03125 C9,16.3591484 9.26865,16.625 9.6,16.625 L14.4,16.625 C14.73135,16.625 15,16.3591484 15,16.03125 L15,14.25 C15,13.9221016 14.73135,13.65625 14.4,13.65625 L14.4,13.65625 Z" id="Shape" fill="#B8BAC0"></path>
                        <path d="M19.2,13.65625 L16.8,13.65625 C16.46865,13.65625 16.2,13.9221016 16.2,14.25 L16.2,16.03125 C16.2,16.3591484 16.46865,16.625 16.8,16.625 L19.2,16.625 C19.53135,16.625 19.8,16.3591484 19.8,16.03125 L19.8,14.25 C19.8,13.9221016 19.53135,13.65625 19.2,13.65625 L19.2,13.65625 Z" id="Shape" fill="#B8BAC0"></path>
                        <path d="M7.2,13.65625 L4.8,13.65625 C4.46865,13.65625 4.2,13.9221016 4.2,14.25 L4.2,16.03125 C4.2,16.3591484 4.46865,16.625 4.8,16.625 L7.2,16.625 C7.53135,16.625 7.8,16.3591484 7.8,16.03125 L7.8,14.25 C7.8,13.9221016 7.53135,13.65625 7.2,13.65625 L7.2,13.65625 Z" id="Shape" fill="#B8BAC0"></path>
                    </g>
                </g>
            </g>
        </g>
    </g>
</svg>